<?xml version="1.0" standalone="no"?>
<!DOCTYPE svg PUBLIC "-//W3C//DTD SVG 20010904//EN"
 "http://www.w3.org/TR/2001/REC-SVG-20010904/DTD/svg10.dtd">
<svg version="1.0" xmlns="http://www.w3.org/2000/svg"
 width="512.000000pt" height="512.000000pt" viewBox="0 0 512.000000 512.000000"
 preserveAspectRatio="xMidYMid meet">
<metadata>
Created by potrace 1.11, written by Peter Selinger 2001-2013
</metadata>
<g transform="translate(0.000000,512.000000) scale(0.100000,-0.100000)"
fill="#000000" stroke="none">
<path d="M347 5073 c-4 -3 -7 -62 -7 -130 l0 -123 -170 0 -170 0 0 -2383 0
-2384 1280 -7 c704 -3 1856 -3 2560 0 l1280 7 0 2384 0 2383 -170 0 -169 0 -3
128 -3 127 -2211 3 c-1216 1 -2214 -1 -2217 -5z m1015 -900 l3 -308 27 -57
c35 -75 96 -132 169 -159 l59 -22 0 -1323 0 -1324 -725 0 -725 0 1 1453 c0
1186 3 1445 13 1412 42 -132 137 -206 273 -213 60 -4 80 0 125 20 75 34 122
79 155 146 l28 57 3 313 4 312 293 0 293 0 4 -307z m1196 0 c-3 -227 -8 -317
-18 -343 -34 -89 -106 -158 -192 -185 -39 -12 -15 -14 232 -15 151 0 343 -2
425 -3 l150 -2 3 -722 2 -723 -600 0 -600 0 2 723 3 722 125 5 c69 3 116 7
106 8 -63 7 -161 84 -198 155 -24 49 -26 73 -32 410 l-5 277 300 0 301 0 -4
-307z m1194 0 l3 -308 26 -56 c31 -65 83 -120 142 -150 58 -30 159 -37 225
-15 64 22 139 88 172 152 25 49 25 51 28 367 l3 317 299 0 300 0 0 -1750 0
-1750 -725 0 -725 0 0 1324 0 1323 -61 6 c-113 10 -206 74 -253 176 -20 43
-21 65 -24 359 l-3 312 295 0 294 0 4 -307z m-594 -3105 l-3 -683 -595 0 -595
0 -3 683 -2 682 600 0 600 0 -2 -682z"/>
</g>
</svg>
